<?xml version="1.0" encoding="utf-8"?>
<!-- Generator: Adobe Illustrator 25.2.1, SVG Export Plug-In . SVG Version: 6.00 Build 0)  -->
<svg version="1.1" id="Layer_1" xmlns="http://www.w3.org/2000/svg" xmlns:xlink="http://www.w3.org/1999/xlink" x="0px" y="0px"
	 viewBox="0 0 508 508" style="enable-background:new 0 0 508 508;" xml:space="preserve">
<style type="text/css">
	.st0{fill:#FFFFFF;}
	.st1{fill:#1DBF73;}
</style>
<g>
	
		<ellipse transform="matrix(0.1602 -0.9871 0.9871 0.1602 19.0573 435.6946)" class="st0" cx="265.6" cy="206.6" rx="34.1" ry="34.1"/>
	<path class="st1" d="M239.7,13.9c117.3,0,349.4,334.3,232.1,330.4c-129.2-4.3-114.8,94.8-232.1,94.8S-60.8,275.3,27.1,226.3
		C129.6,169.2,122.2,13.9,239.7,13.9z"/>
	<path class="st0" d="M340.8,185.4H237.9v-6.7c0-13.3,13.3-13.5,20.1-13.5c7.8,0,11.2,0.7,11.2,0.7l47.6-14.6
		c-5.5-0.7-58.6-22.9-64.1-22.9c-21.5,0-61.2,6-61.2,51.5v5.9h-18.8v33.7h18.8v71.2h-17.6v33.7h84.5v-33.7h-20.4v-71.2h56.3v71.2
		h-17.4v33.7h81.6v-33.7h-17.6V185.4z"/>
</g>
<path d="M349.5,114.1c-33.5-20.9-99.3-14.1-135.5-8.6c-7.3,0.8,49.3-9.1,50.2-1.8c0.8,7.3-48.1,23.9-40.8,23
	c0.3,0,21.3-8.6,22.2-8.7c30.2-4.6,62.3-8.6,93.2,2.9C407,146.2,447,287.4,384.6,307.6l1.7-58l-32,132.9l92.6-86l-39.8,25.1
	C444.3,248.8,420.2,158,349.5,114.1z M169.4,94.4l-95.1,73.1l42.3-12.2C79.3,228.1,103.4,319,174.1,363
	c33.5,20.8,71.8,27.8,107.9,22.2c7.3-0.8-24.2-3.5-25.1-10.7c-0.8-7.3,29.3-16.5,22-15.6c-0.3,0-0.6,0.1-0.9,0.2
	c-30.2,4.6-85.1-4.4-113-21.8c-58.5-36.5-55.7-107.4-25.9-167.9l-1.8,42L169.4,94.4z"/>
</svg>
